{"accessors" : [{"bufferView" : 0, "byteOffset" : 0, "componentType" : 5123, "count" : 6522, "type" : "SCALAR", "max" : [6521], "min" : [0]}, {"bufferView" : 1, "byteOffset" : 0, "componentType" : 5126, "count" : 6522, "type" : "VEC3", "max" : [13.783501625061035, 13.783501625061035, 49.14141082763672], "min" : [-13.783501625061035, -13.783501625061035, 13.649282455444336]}, {"bufferView" : 1, "byteOffset" : 12, "componentType" : 5126, "count" : 6522, "type" : "VEC3", "max" : [1.0000044107437134, 1.0000044107437134, 1.0000044107437134], "min" : [-1.0000044107437134, -1.0000044107437134, -0.9340366721153259]}, {"bufferView" : 1, "byteOffset" : 24, "componentType" : 5126, "count" : 6522, "type" : "VEC2", "max" : [0, -0], "min" : [0, -0]}, {"bufferView" : 0, "byteOffset" : 13044, "componentType" : 5123, "count" : 948, "type" : "SCALAR", "max" : [947], "min" : [0]}, {"bufferView" : 3, "byteOffset" : 0, "componentType" : 5126, "count" : 948, "type" : "VEC3", "max" : [0.18770669400691986, 0.18770669400691986, -1.3576598167419434], "min" : [-0.18770669400691986, -0.18770669400691986, -1.4512922763824463]}, {"bufferView" : 3, "byteOffset" : 12, "componentType" : 5126, "count" : 948, "type" : "VEC3", "max" : [0.9980420470237732, 0.9980420470237732, 1.0000044107437134], "min" : [-0.9980420470237732, -0.9980420470237732, -0.9978154897689819]}, {"bufferView" : 3, "byteOffset" : 24, "componentType" : 5126, "count" : 948, "type" : "VEC2", "max" : [0, -0], "min" : [0, -0]}, {"bufferView" : 0, "byteOffset" : 14940, "componentType" : 5123, "count" : 19464, "type" : "SCALAR", "max" : [19463], "min" : [0]}, {"bufferView" : 4, "byteOffset" : 0, "componentType" : 5126, "count" : 19464, "type" : "VEC3", "max" : [0.3355695307254791, 0.3355048596858978, -0.7883858680725098], "min" : [-0.3355545103549957, -0.3355048596858978, -1.4660007953643799]}, {"bufferView" : 4, "byteOffset" : 12, "componentType" : 5126, "count" : 19464, "type" : "VEC3", "max" : [0.9983569979667664, 0.9997093677520752, 1.0000044107437134], "min" : [-0.9997013211250305, -0.9998571872711182, -0.9984965324401855]}, {"bufferView" : 4, "byteOffset" : 24, "componentType" : 5126, "count" : 19464, "type" : "VEC2", "max" : [1, -2.9802322387695312E-08], "min" : [0, -1]}], "asset" : {"generator" : "Aspose.3D 20.11", "version" : "2.0"}, "buffers" : [{"uri" : "buffer.bin", "byteLength" : 1072724}], "bufferViews" : [{"buffer" : 0, "byteOffset" : 0, "byteLength" : 53868, "target" : 34963}, {"buffer" : 0, "byteOffset" : 53872, "byteLength" : 208704, "byteStride" : 32, "target" : 34962}, {"buffer" : 0, "byteOffset" : 262580, "byteLength" : 3714}, {"buffer" : 0, "byteOffset" : 266296, "byteLength" : 30336, "byteStride" : 32, "target" : 34962}, {"buffer" : 0, "byteOffset" : 296636, "byteLength" : 622848, "byteStride" : 32, "target" : 34962}, {"buffer" : 0, "byteOffset" : 919488, "byteLength" : 153235}], "images" : [{"mimeType" : "image/png", "bufferView" : 2}, {"mimeType" : "image/png", "bufferView" : 5}], "materials" : [{"pbrMetallicRoughness" : {"baseColorFactor" : [0.5879999995231628, 0.5879999995231628, 0.5879999995231628, 1], "baseColorTexture" : {"index" : 0, "texCoord" : 0}, "metallicFactor" : 0, "roughnessFactor" : 0}, "emissiveFactor" : [0, 0, 0], "alphaMode" : "OPAQUE", "doubleSided" : false}, {"pbrMetallicRoughness" : {"baseColorFactor" : [0.019607843831181526, 0.019607843831181526, 0.019607843831181526, 1], "metallicFactor" : 0, "roughnessFactor" : 0}, "emissiveFactor" : [0, 0, 0], "alphaMode" : "OPAQUE", "doubleSided" : false}, {"pbrMetallicRoughness" : {"baseColorFactor" : [0.5882353186607361, 0.5882353186607361, 0.5882353186607361, 1], "baseColorTexture" : {"index" : 1, "texCoord" : 0}, "metallicFactor" : 0, "roughnessFactor" : 0}, "emissiveFactor" : [0, 0, 0], "alphaMode" : "OPAQUE", "doubleSided" : false}], "meshes" : [{"primitives" : [{"attributes" : {"POSITION" : 1, "NORMAL" : 2, "TEXCOORD_0" : 3}, "indices" : 0, "material" : 0, "mode" : 4}]}, {"primitives" : [{"attributes" : {"POSITION" : 5, "NORMAL" : 6, "TEXCOORD_0" : 7}, "indices" : 4, "material" : 1, "mode" : 4}, {"attributes" : {"POSITION" : 9, "NORMAL" : 10, "TEXCOORD_0" : 11}, "indices" : 8, "material" : 2, "mode" : 4}]}], "nodes" : [{"matrix" : [1, 0, 0, 0, 0, -2.220446049250313E-16, -1.0000000000000002, 0, 0, 1.0000000000000002, -2.220446049250313E-16, 0, 0.055580563843250275, -0.8700885772705149, -0.026259176433079425, 1], "mesh" : 0, "name" : "Bulb_Main"}, {"matrix" : [20.886625289916992, 0, 0, 0, 0, -4.637762460716786E-15, -20.886625289916996, 0, 0, 20.886625289916996, -4.637762460716786E-15, 0, 0.055580563843250275, 30.619810536987874, -0.026259139180189923, 1], "mesh" : 1, "name" : "Bottum"}], "samplers" : [{"magFilter" : 9729, "minFilter" : 9729, "wrapS" : 10497, "wrapT" : 10497}, {"magFilter" : 9729, "minFilter" : 9729, "wrapS" : 10497, "wrapT" : 10497}], "scene" : 0, "scenes" : [{"nodes" : [0, 1]}], "textures" : [{"sampler" : 0, "source" : 0}, {"sampler" : 1, "source" : 1}]}