{"accessors" : [{"bufferView" : 0, "byteOffset" : 0, "componentType" : 5123, "count" : 6522, "type" : "SCALAR", "max" : [6521], "min" : [0]}, {"bufferView" : 1, "byteOffset" : 0, "componentType" : 5126, "count" : 6522, "type" : "VEC3", "max" : [13.783501625061035, 13.783501625061035, 49.14141082763672], "min" : [-13.783501625061035, -13.783501625061035, 13.649282455444336]}, {"bufferView" : 1, "byteOffset" : 12, "componentType" : 5126, "count" : 6522, "type" : "VEC3", "max" : [1.0000044107437134, 1.0000044107437134, 1.0000044107437134], "min" : [-1.0000044107437134, -1.0000044107437134, -0.9340366721153259]}, {"bufferView" : 1, "byteOffset" : 24, "componentType" : 5126, "count" : 6522, "type" : "VEC2", "max" : [0, -0], "min" : [0, -0]}, {"bufferView" : 0, "byteOffset" : 13044, "componentType" : 5123, "count" : 948, "type" : "SCALAR", "max" : [947], "min" : [0]}, {"bufferView" : 3, "byteOffset" : 0, "componentType" : 5126, "count" : 948, "type" : "VEC3", "max" : [0.18770669400691986, 0.18770669400691986, -1.3576598167419434], "min" : [-0.18770669400691986, -0.18770669400691986, -1.4512922763824463]}, {"bufferView" : 3, "byteOffset" : 12, "componentType" : 5126, "count" : 948, "type" : "VEC3", "max" : [0.9980420470237732, 0.9980420470237732, 1.0000044107437134], "min" : [-0.9980420470237732, -0.9980420470237732, -0.9978154897689819]}, {"bufferView" : 3, "byteOffset" : 24, "componentType" : 5126, "count" : 948, "type" : "VEC2", "max" : [0, -0], "min" : [0, -0]}, {"bufferView" : 0, "byteOffset" : 14940, "componentType" : 5123, "count" : 19464, "type" : "SCALAR", "max" : [19463], "min" : [0]}, {"bufferView" : 4, "byteOffset" : 0, "componentType" : 5126, "count" : 19464, "type" : "VEC3", "max" : [0.3355695307254791, 0.3355048596858978, -0.7883858680725098], "min" : [-0.3355545103549957, -0.3355048596858978, -1.4660007953643799]}, {"bufferView" : 4, "byteOffset" : 12, "componentType" : 5126, "count" : 19464, "type" : "VEC3", "max" : [0.9983569979667664, 0.9997093677520752, 1.0000044107437134], "min" : [-0.9997013211250305, -0.9998571872711182, -0.9984965324401855]}, {"bufferView" : 4, "byteOffset" : 24, "componentType" : 5126, "count" : 19464, "type" : "VEC2", "max" : [1, -2.9802322387695312E-08], "min" : [0, -1]}, {"bufferView" : 0, "byteOffset" : 53868, "componentType" : 5123, "count" : 3132, "type" : "SCALAR", "max" : [3131], "min" : [0]}, {"bufferView" : 6, "byteOffset" : 0, "componentType" : 5126, "count" : 3132, "type" : "VEC3", "max" : [9.115342140197754, 3.552000045776367, 0.49781739711761475], "min" : [-9.115342140197754, -1.1920928955078125E-07, -4.0719475746154785]}, {"bufferView" : 6, "byteOffset" : 12, "componentType" : 5126, "count" : 3132, "type" : "VEC3", "max" : [0.99982088804245, 1.0000044107437134, 0.999233603477478], "min" : [-0.99851393699646, -1.0000044107437134, -0.999233603477478]}, {"bufferView" : 0, "byteOffset" : 60132, "componentType" : 5123, "count" : 2400, "type" : "SCALAR", "max" : [2399], "min" : [0]}, {"bufferView" : 8, "byteOffset" : 0, "componentType" : 5126, "count" : 2400, "type" : "VEC3", "max" : [0.41999998688697815, 0.41999998688697815, 8.100000381469727], "min" : [-0.41999998688697815, -0.41999998688697815, 0]}, {"bufferView" : 8, "byteOffset" : 12, "componentType" : 5126, "count" : 2400, "type" : "VEC3", "max" : [0.9992393255233765, 0.9992393255233765, 1.0000044107437134], "min" : [-0.9992393255233765, -0.9992393255233765, -1.0000044107437134]}, {"bufferView" : 8, "byteOffset" : 24, "componentType" : 5126, "count" : 2400, "type" : "VEC2", "max" : [1, -0], "min" : [0, -1]}, {"bufferView" : 0, "byteOffset" : 64932, "componentType" : 5123, "count" : 12828, "type" : "SCALAR", "max" : [12827], "min" : [0]}, {"bufferView" : 10, "byteOffset" : 0, "componentType" : 5126, "count" : 12828, "type" : "VEC3", "max" : [2.5005297660827637, 0.37515735626220703, 5.953048229217529], "min" : [-2.4972569942474365, -0.37515735626220703, -5.960744380950928]}, {"bufferView" : 10, "byteOffset" : 12, "componentType" : 5126, "count" : 12828, "type" : "VEC3", "max" : [0.980801522731781, 0.9987553358078003, 0.9810572862625122], "min" : [-0.9878016710281372, -0.9994818568229675, -0.980907678604126]}, {"bufferView" : 10, "byteOffset" : 24, "componentType" : 5126, "count" : 12828, "type" : "VEC2", "max" : [1.2365411520004272, 0.37515705823898315], "min" : [-3.7612452507019043, -0.3751571476459503]}, {"bufferView" : 0, "byteOffset" : 90588, "componentType" : 5123, "count" : 5280, "type" : "SCALAR", "max" : [5279], "min" : [0]}, {"bufferView" : 12, "byteOffset" : 0, "componentType" : 5126, "count" : 5280, "type" : "VEC3", "max" : [2.4353129863739014, 2.4353129863739014, 0.36000001430511475], "min" : [-2.4353129863739014, -2.4353129863739014, -0.36000001430511475]}, {"bufferView" : 12, "byteOffset" : 12, "componentType" : 5126, "count" : 5280, "type" : "VEC3", "max" : [1.0000044107437134, 1.0000044107437134, 0.9999805688858032], "min" : [-1.0000044107437134, -1.0000044107437134, -0.9999805688858032]}, {"bufferView" : 0, "byteOffset" : 101148, "componentType" : 5123, "count" : 216, "type" : "SCALAR", "max" : [215], "min" : [0]}, {"bufferView" : 14, "byteOffset" : 0, "componentType" : 5126, "count" : 216, "type" : "VEC3", "max" : [1.0887527465820312, 1.4926711320877075, 0.08024831861257553], "min" : [-1.3409099578857422, -1.2183284759521484, -0.06113162636756897]}, {"bufferView" : 14, "byteOffset" : 12, "componentType" : 5126, "count" : 216, "type" : "VEC3", "max" : [0.9976742267608643, 0.9077446460723877, 1.0000044107437134], "min" : [-0.9924507737159729, -0.9986839890480042, -1.0000044107437134]}, {"bufferView" : 0, "byteOffset" : 101580, "componentType" : 5123, "count" : 12288, "type" : "SCALAR", "max" : [12287], "min" : [0]}, {"bufferView" : 16, "byteOffset" : 0, "componentType" : 5126, "count" : 12288, "type" : "VEC3", "max" : [2.2804367542266846, 2.2804367542266846, 2.8442585468292236], "min" : [-2.2804362773895264, -2.2804365158081055, -2.3446946144104004]}, {"bufferView" : 16, "byteOffset" : 12, "componentType" : 5126, "count" : 12288, "type" : "VEC3", "max" : [0.9999666810035706, 0.9999667406082153, 1.0000044107437134], "min" : [-0.9999667406082153, -0.9999667406082153, -1.0000044107437134]}, {"bufferView" : 16, "byteOffset" : 24, "componentType" : 5126, "count" : 12288, "type" : "VEC2", "max" : [0, -0], "min" : [0, -0]}, {"bufferView" : 0, "byteOffset" : 126156, "componentType" : 5123, "count" : 1500, "type" : "SCALAR", "max" : [1499], "min" : [0]}, {"bufferView" : 17, "byteOffset" : 0, "componentType" : 5126, "count" : 1500, "type" : "VEC3", "max" : [5.017974376678467, 5.008072376251221, 1.7999999523162842], "min" : [-4.9784064292907715, -5.0080718994140625, 0]}, {"bufferView" : 17, "byteOffset" : 12, "componentType" : 5126, "count" : 1500, "type" : "VEC3", "max" : [1.0000044107437134, 0.9980310797691345, 1.0000044107437134], "min" : [-0.9921191334724426, -0.998030960559845, -1.0000044107437134]}, {"bufferView" : 17, "byteOffset" : 24, "componentType" : 5126, "count" : 1500, "type" : "VEC2", "max" : [1.029842495918274, -0], "min" : [-0.009842222556471825, -1]}, {"bufferView" : 0, "byteOffset" : 129156, "componentType" : 5123, "count" : 12360, "type" : "SCALAR", "max" : [12359], "min" : [0]}, {"bufferView" : 19, "byteOffset" : 0, "componentType" : 5126, "count" : 12360, "type" : "VEC3", "max" : [4.690390110015869, 0.12455785274505615, 4.864236354827881], "min" : [-4.769903659820557, -0.12455564737319946, -0.028330322355031967]}, {"bufferView" : 19, "byteOffset" : 12, "componentType" : 5126, "count" : 12360, "type" : "VEC3", "max" : [0.9998277425765991, 1.0000044107437134, 0.9998277425765991], "min" : [-0.9998277425765991, -1.0000044107437134, -0.9998276233673096]}, {"bufferView" : 19, "byteOffset" : 24, "componentType" : 5126, "count" : 12360, "type" : "VEC2", "max" : [1.056143045425415, 0.010471725836396217], "min" : [0.0003769751638174057, -0.9849231243133545]}, {"bufferView" : 0, "byteOffset" : 153876, "componentType" : 5123, "count" : 2304, "type" : "SCALAR", "max" : [2303], "min" : [0]}, {"bufferView" : 21, "byteOffset" : 0, "componentType" : 5126, "count" : 2304, "type" : "VEC3", "max" : [0.775556743144989, 0.7755575776100159, 0.6609286069869995], "min" : [-0.7755582332611084, -0.7755575776100159, -0.6608052253723145]}, {"bufferView" : 21, "byteOffset" : 12, "componentType" : 5126, "count" : 2304, "type" : "VEC3", "max" : [0.9999535083770752, 0.9999535083770752, 0.9999535083770752], "min" : [-0.9999535083770752, -0.9999535083770752, -0.9999535083770752]}, {"bufferView" : 21, "byteOffset" : 24, "componentType" : 5126, "count" : 2304, "type" : "VEC2", "max" : [0, -0], "min" : [0, -0]}, {"bufferView" : 0, "byteOffset" : 158484, "componentType" : 5123, "count" : 6240, "type" : "SCALAR", "max" : [6239], "min" : [0]}, {"bufferView" : 23, "byteOffset" : 0, "componentType" : 5126, "count" : 6240, "type" : "VEC3", "max" : [2.3631107807159424, 2.363110065460205, 2.5944766998291016], "min" : [-2.363110065460205, -2.3631107807159424, -4.954373836517334]}, {"bufferView" : 23, "byteOffset" : 12, "componentType" : 5126, "count" : 6240, "type" : "VEC3", "max" : [0.9998664855957031, 0.9998664259910583, 1.0000044107437134], "min" : [-0.9998664855957031, -0.9998664855957031, -0.5147042274475098]}, {"bufferView" : 23, "byteOffset" : 24, "componentType" : 5126, "count" : 6240, "type" : "VEC2", "max" : [0, -0], "min" : [0, -0]}], "asset" : {"generator" : "Aspose.3D 20.11", "version" : "2.0"}, "buffers" : [{"uri" : "buffer.bin", "byteLength" : 3088692}], "bufferViews" : [{"buffer" : 0, "byteOffset" : 0, "byteLength" : 170964, "target" : 34963}, {"buffer" : 0, "byteOffset" : 170968, "byteLength" : 208704, "byteStride" : 32, "target" : 34962}, {"buffer" : 0, "byteOffset" : 379676, "byteLength" : 3714}, {"buffer" : 0, "byteOffset" : 383392, "byteLength" : 30336, "byteStride" : 32, "target" : 34962}, {"buffer" : 0, "byteOffset" : 413732, "byteLength" : 622848, "byteStride" : 32, "target" : 34962}, {"buffer" : 0, "byteOffset" : 1036584, "byteLength" : 153235}, {"buffer" : 0, "byteOffset" : 1189820, "byteLength" : 75168, "byteStride" : 24, "target" : 34962}, {"buffer" : 0, "byteOffset" : 1264992, "byteLength" : 13092}, {"buffer" : 0, "byteOffset" : 1278088, "byteLength" : 76800, "byteStride" : 32, "target" : 34962}, {"buffer" : 0, "byteOffset" : 1354892, "byteLength" : 13490}, {"buffer" : 0, "byteOffset" : 1368384, "byteLength" : 410496, "byteStride" : 32, "target" : 34962}, {"buffer" : 0, "byteOffset" : 1778884, "byteLength" : 13490}, {"buffer" : 0, "byteOffset" : 1792376, "byteLength" : 126720, "byteStride" : 24, "target" : 34962}, {"buffer" : 0, "byteOffset" : 1919100, "byteLength" : 13490}, {"buffer" : 0, "byteOffset" : 1932592, "byteLength" : 5184, "byteStride" : 24, "target" : 34962}, {"buffer" : 0, "byteOffset" : 1937780, "byteLength" : 13578}, {"buffer" : 0, "byteOffset" : 1951360, "byteLength" : 393216, "byteStride" : 32, "target" : 34962}, {"buffer" : 0, "byteOffset" : 2344580, "byteLength" : 48000, "byteStride" : 32, "target" : 34962}, {"buffer" : 0, "byteOffset" : 2392584, "byteLength" : 13578}, {"buffer" : 0, "byteOffset" : 2406164, "byteLength" : 395520, "byteStride" : 32, "target" : 34962}, {"buffer" : 0, "byteOffset" : 2801688, "byteLength" : 0}, {"buffer" : 0, "byteOffset" : 2801692, "byteLength" : 73728, "byteStride" : 32, "target" : 34962}, {"buffer" : 0, "byteOffset" : 2875424, "byteLength" : 0}, {"buffer" : 0, "byteOffset" : 2875428, "byteLength" : 199680, "byteStride" : 32, "target" : 34962}, {"buffer" : 0, "byteOffset" : 3075112, "byteLength" : 13578}], "images" : [{"mimeType" : "image/png", "bufferView" : 2}, {"mimeType" : "image/png", "bufferView" : 5}, {"mimeType" : "application/octet-stream", "bufferView" : 7}, {"mimeType" : "application/octet-stream", "bufferView" : 9}, {"mimeType" : "application/octet-stream", "bufferView" : 11}, {"mimeType" : "application/octet-stream", "bufferView" : 13}, {"mimeType" : "application/octet-stream", "bufferView" : 15}, {"mimeType" : "application/octet-stream", "bufferView" : 18}, {"mimeType" : "text/plain", "bufferView" : 20}, {"mimeType" : "text/plain", "bufferView" : 22}, {"mimeType" : "application/octet-stream", "bufferView" : 24}], "materials" : [{"pbrMetallicRoughness" : {"baseColorFactor" : [0.5879999995231628, 0.5879999995231628, 0.5879999995231628, 1], "baseColorTexture" : {"index" : 0, "texCoord" : 0}, "metallicFactor" : 0, "roughnessFactor" : 0}, "emissiveFactor" : [0, 0, 0], "alphaMode" : "OPAQUE", "doubleSided" : false}, {"pbrMetallicRoughness" : {"baseColorFactor" : [0.019607843831181526, 0.019607843831181526, 0.019607843831181526, 1], "metallicFactor" : 0, "roughnessFactor" : 0}, "emissiveFactor" : [0, 0, 0], "alphaMode" : "OPAQUE", "doubleSided" : false}, {"pbrMetallicRoughness" : {"baseColorFactor" : [0.5882353186607361, 0.5882353186607361, 0.5882353186607361, 1], "baseColorTexture" : {"index" : 1, "texCoord" : 0}, "metallicFactor" : 0, "roughnessFactor" : 0}, "emissiveFactor" : [0, 0, 0], "alphaMode" : "OPAQUE", "doubleSided" : false}, {"pbrMetallicRoughness" : {"baseColorFactor" : [0.5882353186607361, 0.5882353186607361, 0.5882353186607361, 1], "baseColorTexture" : {"index" : 2, "texCoord" : 0}, "metallicFactor" : 0, "roughnessFactor" : 0}, "emissiveFactor" : [0, 0, 0], "alphaMode" : "OPAQUE", "doubleSided" : false}, {"pbrMetallicRoughness" : {"baseColorFactor" : [0.5882353186607361, 0.5882353186607361, 0.5882353186607361, 1], "baseColorTexture" : {"index" : 3, "texCoord" : 0}, "metallicFactor" : 0, "roughnessFactor" : 0}, "emissiveFactor" : [0, 0, 0], "alphaMode" : "OPAQUE", "doubleSided" : false}, {"pbrMetallicRoughness" : {"baseColorFactor" : [0.5882353186607361, 0.5882353186607361, 0.5882353186607361, 1], "baseColorTexture" : {"index" : 4, "texCoord" : 0}, "metallicFactor" : 0, "roughnessFactor" : 0}, "emissiveFactor" : [0, 0, 0], "alphaMode" : "OPAQUE", "doubleSided" : false}, {"pbrMetallicRoughness" : {"baseColorFactor" : [0.5882353186607361, 0.5882353186607361, 0.5882353186607361, 1], "baseColorTexture" : {"index" : 5, "texCoord" : 0}, "metallicFactor" : 0, "roughnessFactor" : 0}, "emissiveFactor" : [0, 0, 0], "alphaMode" : "OPAQUE", "doubleSided" : false}, {"pbrMetallicRoughness" : {"baseColorFactor" : [0.5882353186607361, 0.5882353186607361, 0.5882353186607361, 1], "baseColorTexture" : {"index" : 6, "texCoord" : 0}, "metallicFactor" : 0, "roughnessFactor" : 0}, "emissiveFactor" : [0, 0, 0], "alphaMode" : "OPAQUE", "doubleSided" : false}, {"pbrMetallicRoughness" : {"baseColorFactor" : [0.5882353186607361, 0.5882353186607361, 0.5882353186607361, 1], "metallicFactor" : 0, "roughnessFactor" : 0}, "emissiveFactor" : [0, 0, 0], "alphaMode" : "OPAQUE", "doubleSided" : false}, {"pbrMetallicRoughness" : {"baseColorFactor" : [0.5882353186607361, 0.5882353186607361, 0.5882353186607361, 1], "baseColorTexture" : {"index" : 7, "texCoord" : 0}, "metallicFactor" : 0, "roughnessFactor" : 0}, "emissiveFactor" : [0, 0, 0], "alphaMode" : "OPAQUE", "doubleSided" : false}, {"pbrMetallicRoughness" : {"baseColorFactor" : [0.5882353186607361, 0.5882353186607361, 0.5882353186607361, 1], "baseColorTexture" : {"index" : 8, "texCoord" : 0}, "metallicFactor" : 0, "roughnessFactor" : 0}, "emissiveFactor" : [0, 0, 0], "alphaMode" : "OPAQUE", "doubleSided" : false}, {"pbrMetallicRoughness" : {"baseColorFactor" : [0.5882353186607361, 0.5882353186607361, 0.5882353186607361, 1], "baseColorTexture" : {"index" : 9, "texCoord" : 0}, "metallicFactor" : 0, "roughnessFactor" : 0}, "emissiveFactor" : [0, 0, 0], "alphaMode" : "OPAQUE", "doubleSided" : false}, {"pbrMetallicRoughness" : {"baseColorFactor" : [0.5882353186607361, 0.5882353186607361, 0.5882353186607361, 1], "baseColorTexture" : {"index" : 10, "texCoord" : 0}, "metallicFactor" : 0, "roughnessFactor" : 0}, "emissiveFactor" : [0, 0, 0], "alphaMode" : "OPAQUE", "doubleSided" : false}], "meshes" : [{"primitives" : [{"attributes" : {"POSITION" : 1, "NORMAL" : 2, "TEXCOORD_0" : 3}, "indices" : 0, "material" : 0, "mode" : 4}]}, {"primitives" : [{"attributes" : {"POSITION" : 5, "NORMAL" : 6, "TEXCOORD_0" : 7}, "indices" : 4, "material" : 1, "mode" : 4}, {"attributes" : {"POSITION" : 9, "NORMAL" : 10, "TEXCOORD_0" : 11}, "indices" : 8, "material" : 2, "mode" : 4}]}, {"primitives" : [{"attributes" : {"POSITION" : 13, "NORMAL" : 14}, "indices" : 12, "material" : 3, "mode" : 4}]}, {"primitives" : [{"attributes" : {"POSITION" : 16, "NORMAL" : 17, "TEXCOORD_0" : 18}, "indices" : 15, "material" : 4, "mode" : 4}]}, {"primitives" : [{"attributes" : {"POSITION" : 20, "NORMAL" : 21, "TEXCOORD_0" : 22}, "indices" : 19, "material" : 5, "mode" : 4}]}, {"primitives" : [{"attributes" : {"POSITION" : 24, "NORMAL" : 25}, "indices" : 23, "material" : 6, "mode" : 4}]}, {"primitives" : [{"attributes" : {"POSITION" : 27, "NORMAL" : 28}, "indices" : 26, "material" : 7, "mode" : 4}]}, {"primitives" : [{"attributes" : {"POSITION" : 30, "NORMAL" : 31, "TEXCOORD_0" : 32}, "indices" : 29, "material" : 8, "mode" : 4}]}, {"primitives" : [{"attributes" : {"POSITION" : 34, "NORMAL" : 35, "TEXCOORD_0" : 36}, "indices" : 33, "material" : 9, "mode" : 4}]}, {"primitives" : [{"attributes" : {"POSITION" : 38, "NORMAL" : 39, "TEXCOORD_0" : 40}, "indices" : 37, "material" : 10, "mode" : 4}]}, {"primitives" : [{"attributes" : {"POSITION" : 42, "NORMAL" : 43, "TEXCOORD_0" : 44}, "indices" : 41, "material" : 11, "mode" : 4}]}, {"primitives" : [{"attributes" : {"POSITION" : 46, "NORMAL" : 47, "TEXCOORD_0" : 48}, "indices" : 45, "material" : 12, "mode" : 4}]}], "nodes" : [{"matrix" : [1, 0, 0, 0, 0, -2.220446049250313E-16, -1.0000000000000002, 0, 0, 1.0000000000000002, -2.220446049250313E-16, 0, 0.055580563843250275, -0.8700885772705149, -0.026259176433079425, 1], "mesh" : 0, "name" : "Bulb_Main"}, {"matrix" : [20.886625289916992, 0, 0, 0, 0, -4.637762460716786E-15, -20.886625289916996, 0, 0, 20.886625289916996, -4.637762460716786E-15, 0, 0.055580563843250275, 30.619810536987874, -0.026259139180189923, 1], "mesh" : 1, "name" : "Bottum"}, {"matrix" : [1, 0, 0, 0, 0, -1.6292068494294654E-07, 0.9999999999999868, 0, 0, -0.9999999999999868, -1.6292068494294654E-07, 0, 0, -10.151340191455036, -1.4624252168668597, 1], "mesh" : 2, "name" : "Verified"}, {"children" : [2], "matrix" : [1, 0, 0, 0, 0, -2.220446049250313E-16, -1.0000000000000002, 0, 0, 1.0000000000000002, -2.220446049250313E-16, 0, 0, 18.581893920898438, -5.816500703303973E-08, 1], "name" : "Dummy_Verified"}, {"matrix" : [1, 0, 0, 0, 0, -8.78176422247634E-07, 0.9999999999996144, 0, 0, -0.9999999999996144, -8.78176422247634E-07, 0, 0.16432282328605652, 5.976976394651759, -0.0025482177600018013, 1], "mesh" : 3, "name" : "Capsule001"}, {"matrix" : [1, 0, 0, 0, 0, -1.6292068494294654E-07, -0.9999999999999868, 0, 0, 0.9999999999999868, -1.6292068494294654E-07, 0, -3.5589895248413086, -3.4582481384277344, -0.002548217436099359, 1], "mesh" : 4, "name" : "Box002"}, {"matrix" : [1, 0, 0, 0, 0, 1, 0, 0, 0, 0, 1, 0, 3.857171058654785, 0.3841514587402344, -0.002546310191974044, 1], "mesh" : 5, "name" : "Circle001"}, {"matrix" : [1.096750020980835, 0, 0, 0, 0, 1.096750020980835, 0, 0, 0, 0, 1.096750020980835, 0, -2.928122524410206, -7.439558039726862, -0.0014152530844606659, 1], "mesh" : 6, "name" : "Line003"}, {"matrix" : [1, 0, 0, 0, 0, -1.6292068494294654E-07, -0.9999999999999868, 0, 0, 0.9999999999999868, -1.6292068494294654E-07, 0, 0.16420887410640717, 12.257368087768555, -0.000762939453125, 1], "mesh" : 7, "name" : "Object004"}, {"matrix" : [1, 0, 0, 0, 0, 1, 0, 0, 0, 0, 0.8868298530578613, 0, 0.16413067281246185, 12.770002218483697, -4.181153896168951, 1], "mesh" : 8, "name" : "Cylinder001"}, {"matrix" : [1, 0, 0, 0, 0, -7.589671326968528E-07, 0.999999999999712, 0, 0, -0.999999999999712, -7.589671326968528E-07, 0, 0.20396564900875092, 17.47181510925258, -0.0007568824349734992, 1], "mesh" : 9, "name" : "Cylinder002"}, {"matrix" : [1, 0, 0, 0, 0, -1.6292068494294654E-07, -0.9999999999999868, 0, 0, 0.9999999999999868, -1.6292068494294654E-07, 0, 0.16420887410640717, 9.027719497680664, -0.027019498869776726, 1], "mesh" : 10, "name" : "Object003"}, {"matrix" : [0.5158694386482239, 0, 0, 0, 0, -8.404580148387979E-08, -0.5158694386482171, 0, 0, 0.5158694386482171, -8.404580148387979E-08, 0, 0.16420887410640717, 12.507150650024403, -0.0007630009495542822, 1], "mesh" : 11, "name" : "Object002"}, {"children" : [4, 5, 6, 7, 8, 9, 10, 11, 12], "matrix" : [1, 0, 0, 0, 0, 0.9999999999999867, 1.6292068483192368E-07, 0, 0, -1.6292068483192368E-07, 0.9999999999999867, 0, -0.16420885920524597, 26.279050827026367, 1.1486937410154496E-06, 1], "name" : "Dummy002"}], "samplers" : [{"magFilter" : 9729, "minFilter" : 9729, "wrapS" : 10497, "wrapT" : 10497}, {"magFilter" : 9729, "minFilter" : 9729, "wrapS" : 10497, "wrapT" : 10497}, {"magFilter" : 9729, "minFilter" : 9729, "wrapS" : 10497, "wrapT" : 10497}, {"magFilter" : 9729, "minFilter" : 9729, "wrapS" : 10497, "wrapT" : 10497}, {"magFilter" : 9729, "minFilter" : 9729, "wrapS" : 10497, "wrapT" : 10497}, {"magFilter" : 9729, "minFilter" : 9729, "wrapS" : 10497, "wrapT" : 10497}, {"magFilter" : 9729, "minFilter" : 9729, "wrapS" : 10497, "wrapT" : 10497}, {"magFilter" : 9729, "minFilter" : 9729, "wrapS" : 10497, "wrapT" : 10497}, {"magFilter" : 9729, "minFilter" : 9729, "wrapS" : 10497, "wrapT" : 10497}, {"magFilter" : 9729, "minFilter" : 9729, "wrapS" : 10497, "wrapT" : 10497}, {"magFilter" : 9729, "minFilter" : 9729, "wrapS" : 10497, "wrapT" : 10497}], "scene" : 0, "scenes" : [{"nodes" : [0, 1, 3, 13]}], "textures" : [{"sampler" : 0, "source" : 0}, {"sampler" : 1, "source" : 1}, {"sampler" : 2, "source" : 2}, {"sampler" : 3, "source" : 3}, {"sampler" : 4, "source" : 4}, {"sampler" : 5, "source" : 5}, {"sampler" : 6, "source" : 6}, {"sampler" : 7, "source" : 7}, {"sampler" : 8, "source" : 8}, {"sampler" : 9, "source" : 9}, {"sampler" : 10, "source" : 10}]}