{"accessors" : [{"bufferView" : 0, "byteOffset" : 0, "componentType" : 5123, "count" : 1632, "type" : "SCALAR", "max" : [1631], "min" : [0]}, {"bufferView" : 1, "byteOffset" : 0, "componentType" : 5126, "count" : 1632, "type" : "VEC3", "max" : [0.25799521803855896, 0.2579953372478485, 0.5499151349067688], "min" : [-0.2579951584339142, -0.25799527764320374, -0.2898956835269928]}, {"bufferView" : 1, "byteOffset" : 12, "componentType" : 5126, "count" : 1632, "type" : "VEC3", "max" : [0.9779006838798523, 0.9779008030891418, 1.0000044107437134], "min" : [-0.9779008626937866, -0.9779007434844971, -1.0000044107437134]}, {"bufferView" : 1, "byteOffset" : 24, "componentType" : 5126, "count" : 1632, "type" : "VEC2", "max" : [0.5826287865638733, -0.3058110475540161], "min" : [0.344882607460022, -0.5435572862625122]}, {"bufferView" : 0, "byteOffset" : 3264, "componentType" : 5123, "count" : 1632, "type" : "SCALAR", "max" : [1631], "min" : [0]}, {"bufferView" : 2, "byteOffset" : 0, "componentType" : 5126, "count" : 1632, "type" : "VEC3", "max" : [0.25799521803855896, 0.2579953372478485, 0.5499151349067688], "min" : [-0.2579951584339142, -0.25799527764320374, -0.2898956835269928]}, {"bufferView" : 2, "byteOffset" : 12, "componentType" : 5126, "count" : 1632, "type" : "VEC3", "max" : [0.9779006838798523, 0.9779008030891418, 1.0000044107437134], "min" : [-0.9779008626937866, -0.9779007434844971, -1.0000044107437134]}, {"bufferView" : 2, "byteOffset" : 24, "componentType" : 5126, "count" : 1632, "type" : "VEC2", "max" : [0.7026189565658569, -0.21500486135482788], "min" : [0.464872807264328, -0.452751100063324]}, {"bufferView" : 0, "byteOffset" : 6528, "componentType" : 5123, "count" : 1632, "type" : "SCALAR", "max" : [1631], "min" : [0]}, {"bufferView" : 3, "byteOffset" : 0, "componentType" : 5126, "count" : 1632, "type" : "VEC3", "max" : [0.2579951584339142, 0.2579953372478485, 0.2898956835269928], "min" : [-0.25799521803855896, -0.25799527764320374, -0.5499151349067688]}, {"bufferView" : 3, "byteOffset" : 12, "componentType" : 5126, "count" : 1632, "type" : "VEC3", "max" : [0.9779008626937866, 0.9779008030891418, 1.0000044107437134], "min" : [-0.9779006838798523, -0.9779007434844971, -1.0000044107437134]}, {"bufferView" : 3, "byteOffset" : 24, "componentType" : 5126, "count" : 1632, "type" : "VEC2", "max" : [1, -0], "min" : [0, -1]}, {"bufferView" : 0, "byteOffset" : 9792, "componentType" : 5123, "count" : 1632, "type" : "SCALAR", "max" : [1631], "min" : [0]}, {"bufferView" : 4, "byteOffset" : 0, "componentType" : 5126, "count" : 1632, "type" : "VEC3", "max" : [0.25799521803855896, 0.2579953372478485, 0.5499151349067688], "min" : [-0.2579951584339142, -0.25799527764320374, -0.2898956835269928]}, {"bufferView" : 4, "byteOffset" : 12, "componentType" : 5126, "count" : 1632, "type" : "VEC3", "max" : [0.9779006838798523, 0.9779008030891418, 1.0000044107437134], "min" : [-0.9779008626937866, -0.9779007434844971, -1.0000044107437134]}, {"bufferView" : 4, "byteOffset" : 24, "componentType" : 5126, "count" : 1632, "type" : "VEC2", "max" : [0.6331431865692139, -0.40447235107421875], "min" : [0.39539700746536255, -0.6422185897827148]}, {"bufferView" : 0, "byteOffset" : 13056, "componentType" : 5123, "count" : 1632, "type" : "SCALAR", "max" : [1631], "min" : [0]}, {"bufferView" : 5, "byteOffset" : 0, "componentType" : 5126, "count" : 1632, "type" : "VEC3", "max" : [0.25799521803855896, 0.2579953372478485, 0.5499151349067688], "min" : [-0.2579951584339142, -0.25799527764320374, -0.2898956835269928]}, {"bufferView" : 5, "byteOffset" : 12, "componentType" : 5126, "count" : 1632, "type" : "VEC3", "max" : [0.9779006838798523, 0.9779008030891418, 1.0000044107437134], "min" : [-0.9779008626937866, -0.9779007434844971, -1.0000044107437134]}, {"bufferView" : 5, "byteOffset" : 24, "componentType" : 5126, "count" : 1632, "type" : "VEC2", "max" : [0.7668831944465637, -0.29491645097732544], "min" : [0.5291370153427124, -0.5326626896858215]}, {"bufferView" : 0, "byteOffset" : 16320, "componentType" : 5123, "count" : 1632, "type" : "SCALAR", "max" : [1631], "min" : [0]}, {"bufferView" : 6, "byteOffset" : 0, "componentType" : 5126, "count" : 1632, "type" : "VEC3", "max" : [0.2579951584339142, 0.2579953372478485, 0.2898956835269928], "min" : [-0.25799521803855896, -0.25799527764320374, -0.5499151349067688]}, {"bufferView" : 6, "byteOffset" : 12, "componentType" : 5126, "count" : 1632, "type" : "VEC3", "max" : [0.9779008626937866, 0.9779008030891418, 1.0000044107437134], "min" : [-0.9779006838798523, -0.9779007434844971, -1.0000044107437134]}, {"bufferView" : 6, "byteOffset" : 24, "componentType" : 5126, "count" : 1632, "type" : "VEC2", "max" : [1, 5.960464477539063E-08], "min" : [0.656416118144989, -0.9999995827674866]}, {"bufferView" : 0, "byteOffset" : 19584, "componentType" : 5123, "count" : 1632, "type" : "SCALAR", "max" : [1631], "min" : [0]}, {"bufferView" : 7, "byteOffset" : 0, "componentType" : 5126, "count" : 1632, "type" : "VEC3", "max" : [0.25799521803855896, 0.2579953372478485, 0.5499151349067688], "min" : [-0.2579951584339142, -0.25799527764320374, -0.2898956835269928]}, {"bufferView" : 7, "byteOffset" : 12, "componentType" : 5126, "count" : 1632, "type" : "VEC3", "max" : [0.9779006838798523, 0.9779008030891418, 1.0000044107437134], "min" : [-0.9779008626937866, -0.9779007434844971, -1.0000044107437134]}, {"bufferView" : 7, "byteOffset" : 24, "componentType" : 5126, "count" : 1632, "type" : "VEC2", "max" : [0.6204700469970703, -1.7881393432617188E-07], "min" : [0.2768862247467041, -0.9999998211860657]}, {"bufferView" : 0, "byteOffset" : 22848, "componentType" : 5123, "count" : 1632, "type" : "SCALAR", "max" : [1631], "min" : [0]}, {"bufferView" : 8, "byteOffset" : 0, "componentType" : 5126, "count" : 1632, "type" : "VEC3", "max" : [0.25799521803855896, 0.2579953372478485, 0.5499151349067688], "min" : [-0.2579951584339142, -0.25799527764320374, -0.2898956835269928]}, {"bufferView" : 8, "byteOffset" : 12, "componentType" : 5126, "count" : 1632, "type" : "VEC3", "max" : [0.9779006838798523, 0.9779008030891418, 1.0000044107437134], "min" : [-0.9779008626937866, -0.9779007434844971, -1.0000044107437134]}, {"bufferView" : 8, "byteOffset" : 24, "componentType" : 5126, "count" : 1632, "type" : "VEC2", "max" : [0.3435837924480438, -3.8743019104003906E-07], "min" : [-5.960464477539063E-08, -1]}, {"bufferView" : 0, "byteOffset" : 26112, "componentType" : 5123, "count" : 1632, "type" : "SCALAR", "max" : [1631], "min" : [0]}, {"bufferView" : 9, "byteOffset" : 0, "componentType" : 5126, "count" : 1632, "type" : "VEC3", "max" : [0.2579951584339142, 0.2579953372478485, 0.2898956835269928], "min" : [-0.25799521803855896, -0.25799527764320374, -0.5499151349067688]}, {"bufferView" : 9, "byteOffset" : 12, "componentType" : 5126, "count" : 1632, "type" : "VEC3", "max" : [0.9779008626937866, 0.9779008030891418, 1.0000044107437134], "min" : [-0.9779006838798523, -0.9779007434844971, -1.0000044107437134]}, {"bufferView" : 9, "byteOffset" : 24, "componentType" : 5126, "count" : 1632, "type" : "VEC2", "max" : [0.5064735412597656, -0.5155527591705322], "min" : [0.26872727274894714, -0.7532988786697388]}, {"bufferView" : 0, "byteOffset" : 29376, "componentType" : 5123, "count" : 1632, "type" : "SCALAR", "max" : [1631], "min" : [0]}, {"bufferView" : 10, "byteOffset" : 0, "componentType" : 5126, "count" : 1632, "type" : "VEC3", "max" : [0.25799521803855896, 0.2579953372478485, 0.5499151349067688], "min" : [-0.2579951584339142, -0.25799527764320374, -0.2898956835269928]}, {"bufferView" : 10, "byteOffset" : 12, "componentType" : 5126, "count" : 1632, "type" : "VEC3", "max" : [0.9779006838798523, 0.9779008030891418, 1.0000044107437134], "min" : [-0.9779008626937866, -0.9779007434844971, -1.0000044107437134]}, {"bufferView" : 10, "byteOffset" : 24, "componentType" : 5126, "count" : 1632, "type" : "VEC2", "max" : [0, -0], "min" : [0, -0]}, {"bufferView" : 0, "byteOffset" : 32640, "componentType" : 5123, "count" : 1632, "type" : "SCALAR", "max" : [1631], "min" : [0]}, {"bufferView" : 11, "byteOffset" : 0, "componentType" : 5126, "count" : 1632, "type" : "VEC3", "max" : [0.25799521803855896, 0.2579953372478485, 0.5499151349067688], "min" : [-0.2579951584339142, -0.25799527764320374, -0.2898956835269928]}, {"bufferView" : 11, "byteOffset" : 12, "componentType" : 5126, "count" : 1632, "type" : "VEC3", "max" : [0.9779006838798523, 0.9779008030891418, 1.0000044107437134], "min" : [-0.9779008626937866, -0.9779007434844971, -1.0000044107437134]}, {"bufferView" : 11, "byteOffset" : 24, "componentType" : 5126, "count" : 1632, "type" : "VEC2", "max" : [0, -0], "min" : [0, -0]}, {"bufferView" : 0, "byteOffset" : 35904, "componentType" : 5123, "count" : 1632, "type" : "SCALAR", "max" : [1631], "min" : [0]}, {"bufferView" : 12, "byteOffset" : 0, "componentType" : 5126, "count" : 1632, "type" : "VEC3", "max" : [0.2579951584339142, 0.2579953372478485, 0.2898956835269928], "min" : [-0.25799521803855896, -0.25799527764320374, -0.5499151349067688]}, {"bufferView" : 12, "byteOffset" : 12, "componentType" : 5126, "count" : 1632, "type" : "VEC3", "max" : [0.9779008626937866, 0.9779008030891418, 1.0000044107437134], "min" : [-0.9779006838798523, -0.9779007434844971, -1.0000044107437134]}, {"bufferView" : 12, "byteOffset" : 24, "componentType" : 5126, "count" : 1632, "type" : "VEC2", "max" : [0.44158321619033813, -0.4537053108215332], "min" : [0.20383697748184204, -0.6914514303207397]}], "asset" : {"generator" : "Aspose.3D 20.11", "version" : "2.0"}, "buffers" : [{"uri" : "buffer.bin", "byteLength" : 665908}], "bufferViews" : [{"buffer" : 0, "byteOffset" : 0, "byteLength" : 39168, "target" : 34963}, {"buffer" : 0, "byteOffset" : 39172, "byteLength" : 52224, "byteStride" : 32, "target" : 34962}, {"buffer" : 0, "byteOffset" : 91400, "byteLength" : 52224, "byteStride" : 32, "target" : 34962}, {"buffer" : 0, "byteOffset" : 143628, "byteLength" : 52224, "byteStride" : 32, "target" : 34962}, {"buffer" : 0, "byteOffset" : 195856, "byteLength" : 52224, "byteStride" : 32, "target" : 34962}, {"buffer" : 0, "byteOffset" : 248084, "byteLength" : 52224, "byteStride" : 32, "target" : 34962}, {"buffer" : 0, "byteOffset" : 300312, "byteLength" : 52224, "byteStride" : 32, "target" : 34962}, {"buffer" : 0, "byteOffset" : 352540, "byteLength" : 52224, "byteStride" : 32, "target" : 34962}, {"buffer" : 0, "byteOffset" : 404768, "byteLength" : 52224, "byteStride" : 32, "target" : 34962}, {"buffer" : 0, "byteOffset" : 456996, "byteLength" : 52224, "byteStride" : 32, "target" : 34962}, {"buffer" : 0, "byteOffset" : 509224, "byteLength" : 52224, "byteStride" : 32, "target" : 34962}, {"buffer" : 0, "byteOffset" : 561452, "byteLength" : 52224, "byteStride" : 32, "target" : 34962}, {"buffer" : 0, "byteOffset" : 613680, "byteLength" : 52224, "byteStride" : 32, "target" : 34962}], "images" : [{"uri" : "D:\\Haresh\\Vala\\Jatinbhai\\Glo Bulb\\Maps\\gold.jpg"}, {"uri" : "D:\\Haresh\\Vala\\Jatinbhai\\Glo Bulb\\Maps\\gold.jpg"}, {"uri" : "D:\\Haresh\\Vala\\Jatinbhai\\Glo Bulb\\Maps\\gold.jpg"}, {"uri" : "D:\\Haresh\\Vala\\Jatinbhai\\Glo Bulb\\Maps\\gold.jpg"}, {"uri" : "D:\\Haresh\\Vala\\Jatinbhai\\Glo Bulb\\Maps\\gold.jpg"}, {"uri" : "D:\\Haresh\\Vala\\Jatinbhai\\Glo Bulb\\Maps\\gold.jpg"}, {"uri" : "D:\\Haresh\\Vala\\Jatinbhai\\Glo Bulb\\Maps\\gold.jpg"}, {"uri" : "D:\\Haresh\\Vala\\Jatinbhai\\Glo Bulb\\Maps\\gold.jpg"}, {"uri" : "D:\\Haresh\\Vala\\Jatinbhai\\Glo Bulb\\Maps\\gold.jpg"}, {"uri" : "D:\\Haresh\\Vala\\Jatinbhai\\Glo Bulb\\Maps\\gold.jpg"}, {"uri" : "D:\\Haresh\\Vala\\Jatinbhai\\Glo Bulb\\Maps\\gold.jpg"}, {"uri" : "D:\\Haresh\\Vala\\Jatinbhai\\Glo Bulb\\Maps\\gold.jpg"}], "materials" : [{"pbrMetallicRoughness" : {"baseColorFactor" : [0.5882353186607361, 0.5882353186607361, 0.5882353186607361, 1], "baseColorTexture" : {"index" : 0, "texCoord" : 0}, "metallicFactor" : 0, "roughnessFactor" : 0}, "emissiveFactor" : [0, 0, 0], "alphaMode" : "OPAQUE", "doubleSided" : false}, {"pbrMetallicRoughness" : {"baseColorFactor" : [0.5882353186607361, 0.5882353186607361, 0.5882353186607361, 1], "baseColorTexture" : {"index" : 1, "texCoord" : 0}, "metallicFactor" : 0, "roughnessFactor" : 0}, "emissiveFactor" : [0, 0, 0], "alphaMode" : "OPAQUE", "doubleSided" : false}, {"pbrMetallicRoughness" : {"baseColorFactor" : [0.5882353186607361, 0.5882353186607361, 0.5882353186607361, 1], "baseColorTexture" : {"index" : 2, "texCoord" : 0}, "metallicFactor" : 0, "roughnessFactor" : 0}, "emissiveFactor" : [0, 0, 0], "alphaMode" : "OPAQUE", "doubleSided" : false}, {"pbrMetallicRoughness" : {"baseColorFactor" : [0.5882353186607361, 0.5882353186607361, 0.5882353186607361, 1], "baseColorTexture" : {"index" : 3, "texCoord" : 0}, "metallicFactor" : 0, "roughnessFactor" : 0}, "emissiveFactor" : [0, 0, 0], "alphaMode" : "OPAQUE", "doubleSided" : false}, {"pbrMetallicRoughness" : {"baseColorFactor" : [0.5882353186607361, 0.5882353186607361, 0.5882353186607361, 1], "baseColorTexture" : {"index" : 4, "texCoord" : 0}, "metallicFactor" : 0, "roughnessFactor" : 0}, "emissiveFactor" : [0, 0, 0], "alphaMode" : "OPAQUE", "doubleSided" : false}, {"pbrMetallicRoughness" : {"baseColorFactor" : [0.5882353186607361, 0.5882353186607361, 0.5882353186607361, 1], "baseColorTexture" : {"index" : 5, "texCoord" : 0}, "metallicFactor" : 0, "roughnessFactor" : 0}, "emissiveFactor" : [0, 0, 0], "alphaMode" : "OPAQUE", "doubleSided" : false}, {"pbrMetallicRoughness" : {"baseColorFactor" : [0.5882353186607361, 0.5882353186607361, 0.5882353186607361, 1], "baseColorTexture" : {"index" : 6, "texCoord" : 0}, "metallicFactor" : 0, "roughnessFactor" : 0}, "emissiveFactor" : [0, 0, 0], "alphaMode" : "OPAQUE", "doubleSided" : false}, {"pbrMetallicRoughness" : {"baseColorFactor" : [0.5882353186607361, 0.5882353186607361, 0.5882353186607361, 1], "baseColorTexture" : {"index" : 7, "texCoord" : 0}, "metallicFactor" : 0, "roughnessFactor" : 0}, "emissiveFactor" : [0, 0, 0], "alphaMode" : "OPAQUE", "doubleSided" : false}, {"pbrMetallicRoughness" : {"baseColorFactor" : [0.5882353186607361, 0.5882353186607361, 0.5882353186607361, 1], "baseColorTexture" : {"index" : 8, "texCoord" : 0}, "metallicFactor" : 0, "roughnessFactor" : 0}, "emissiveFactor" : [0, 0, 0], "alphaMode" : "OPAQUE", "doubleSided" : false}, {"pbrMetallicRoughness" : {"baseColorFactor" : [0.5882353186607361, 0.5882353186607361, 0.5882353186607361, 1], "baseColorTexture" : {"index" : 9, "texCoord" : 0}, "metallicFactor" : 0, "roughnessFactor" : 0}, "emissiveFactor" : [0, 0, 0], "alphaMode" : "OPAQUE", "doubleSided" : false}, {"pbrMetallicRoughness" : {"baseColorFactor" : [0.5882353186607361, 0.5882353186607361, 0.5882353186607361, 1], "baseColorTexture" : {"index" : 10, "texCoord" : 0}, "metallicFactor" : 0, "roughnessFactor" : 0}, "emissiveFactor" : [0, 0, 0], "alphaMode" : "OPAQUE", "doubleSided" : false}, {"pbrMetallicRoughness" : {"baseColorFactor" : [0.5882353186607361, 0.5882353186607361, 0.5882353186607361, 1], "baseColorTexture" : {"index" : 11, "texCoord" : 0}, "metallicFactor" : 0, "roughnessFactor" : 0}, "emissiveFactor" : [0, 0, 0], "alphaMode" : "OPAQUE", "doubleSided" : false}], "meshes" : [{"primitives" : [{"attributes" : {"POSITION" : 1, "NORMAL" : 2, "TEXCOORD_0" : 3}, "indices" : 0, "material" : 0, "mode" : 4}]}, {"primitives" : [{"attributes" : {"POSITION" : 5, "NORMAL" : 6, "TEXCOORD_0" : 7}, "indices" : 4, "material" : 1, "mode" : 4}]}, {"primitives" : [{"attributes" : {"POSITION" : 9, "NORMAL" : 10, "TEXCOORD_0" : 11}, "indices" : 8, "material" : 2, "mode" : 4}]}, {"primitives" : [{"attributes" : {"POSITION" : 13, "NORMAL" : 14, "TEXCOORD_0" : 15}, "indices" : 12, "material" : 3, "mode" : 4}]}, {"primitives" : [{"attributes" : {"POSITION" : 17, "NORMAL" : 18, "TEXCOORD_0" : 19}, "indices" : 16, "material" : 4, "mode" : 4}]}, {"primitives" : [{"attributes" : {"POSITION" : 21, "NORMAL" : 22, "TEXCOORD_0" : 23}, "indices" : 20, "material" : 5, "mode" : 4}]}, {"primitives" : [{"attributes" : {"POSITION" : 25, "NORMAL" : 26, "TEXCOORD_0" : 27}, "indices" : 24, "material" : 6, "mode" : 4}]}, {"primitives" : [{"attributes" : {"POSITION" : 29, "NORMAL" : 30, "TEXCOORD_0" : 31}, "indices" : 28, "material" : 7, "mode" : 4}]}, {"primitives" : [{"attributes" : {"POSITION" : 33, "NORMAL" : 34, "TEXCOORD_0" : 35}, "indices" : 32, "material" : 8, "mode" : 4}]}, {"primitives" : [{"attributes" : {"POSITION" : 37, "NORMAL" : 38, "TEXCOORD_0" : 39}, "indices" : 36, "material" : 9, "mode" : 4}]}, {"primitives" : [{"attributes" : {"POSITION" : 41, "NORMAL" : 42, "TEXCOORD_0" : 43}, "indices" : 40, "material" : 10, "mode" : 4}]}, {"primitives" : [{"attributes" : {"POSITION" : 45, "NORMAL" : 46, "TEXCOORD_0" : 47}, "indices" : 44, "material" : 11, "mode" : 4}]}], "nodes" : [{"matrix" : [9.999999747377461E-05, 4.7683714615714185E-11, 1.748455547012563E-11, 0, 1.748457214469605E-11, -3.496910679280313E-11, -9.999999747377987E-05, 0, -4.7683708501517517E-11, 9.999999747377005E-05, -3.496911511947561E-11, 0, 0.23916149139404297, 37.407440185546875, -0.0007595610222779214, 1], "mesh" : 0, "name" : "Drop"}, {"matrix" : [9.999999747369624E-05, 1.0587911573205604E-26, -1.3510649543567614E-10, 0, -1.35106495435676E-10, 4.769952223719932E-12, -9.999999747369616E-05, 0, 6.444515444022691E-18, 9.999999747378742E-05, 4.769952223719932E-12, 0, 0.6549863815307617, 37.46501159667969, -0.0007595585193485022, 1], "mesh" : 1, "name" : "Drop001"}, {"matrix" : [9.999999747378741E-05, 3.308722366626751E-28, 4.769952228339533E-12, 0, 4.7699522283395284E-12, -4.769952268128852E-12, -9.999999747378733E-05, 0, 2.2752444805842304E-19, 9.999999747378744E-05, -4.769952268128852E-12, 0, 0.4025869369506836, 37.85084915161133, -0.0007595416973344982, 1], "mesh" : 2, "name" : "Drop002"}, {"matrix" : [9.99999974737703E-05, -8.742277735061327E-12, 5.8013340659125634E-11, 0, 5.8013340867626853E-11, 2.384973536142614E-12, -9.999999747377068E-05, 0, 8.742276351456981E-12, 9.999999747378714E-05, 2.3849785987594785E-12, 0, 0.14418506622314453, 37.70170974731445, -0.0007595481583848596, 1], "mesh" : 3, "name" : "Drop003"}, {"matrix" : [9.999999747369941E-05, -2.3849761141671567E-12, 1.3272151433418282E-10, 0, 1.327215142773017E-10, -2.384977732785541E-12, -9.999999747369947E-05, 0, 2.3849792795436213E-12, 9.99999974737875E-05, -2.384974579752231E-12, 0, 0.624119758605957, 37.74941635131836, -0.0007595460629090667, 1], "mesh" : 4, "name" : "Drop004"}, {"matrix" : [9.999999747369941E-05, 2.3849761141671567E-12, 1.3272151433418282E-10, 0, 1.327215142773017E-10, 2.3849776328654715E-12, -9.999999747369947E-05, 0, -2.3849792795436213E-12, 9.99999974737875E-05, 2.3849744687299312E-12, 0, 0.40858936309814453, 38.10085678100586, -0.0007595307542942464, 1], "mesh" : 5, "name" : "Drop005"}, {"matrix" : [-9.99999974736989E-05, -5.8205235881917565E-18, -1.3315805402880712E-10, 0, 1.3315805402880394E-10, 1.7889332418690558E-11, -9.999999747369728E-05, 0, 2.964161115441074E-17, -9.999999747378594E-05, -1.7889332451997247E-11, 0, -0.16138434410095215, 38.11436462402344, -0.0007595301140099764, 1], "mesh" : 6, "name" : "Drop006"}, {"matrix" : [-9.999999747298976E-05, -7.778049404963099E-17, -3.9947417596095433E-10, 0, 3.994741759607038E-10, 9.421661709273021E-11, -9.99999974729453E-05, 0, 4.5415155850374E-16, -9.999999747374319E-05, -9.421661721485474E-11, 0, -0.5772089958190918, 38.05679702758789, -0.0007595326169393957, 1], "mesh" : 7, "name" : "Drop007"}, {"matrix" : [-9.999999747373083E-05, -4.656418762556707E-18, -1.0652644045438974E-10, 0, 1.0652644045437214E-10, -6.200549801285228E-11, -9.999999747371158E-05, 0, -6.13958327942977E-17, -9.999999747376833E-05, 6.200549795734113E-11, 0, -0.3248097896575928, 37.67095947265625, -0.0007595495553687215, 1], "mesh" : 8, "name" : "Drop008"}, {"matrix" : [-9.999999747369888E-05, -2.592683044637521E-17, 1.3315805402879993E-10, 0, -1.3315805402878832E-10, 6.557304704551331E-11, -9.999999747367737E-05, 0, -6.138896519956561E-17, -9.999999747376604E-05, -6.557304706771777E-11, 0, -0.06640815734863281, 37.820098876953125, -0.0007595429779030383, 1], "mesh" : 9, "name" : "Drop009"}, {"matrix" : [-9.999999747377335E-05, -1.0370731902205591E-17, 5.326322023332276E-11, 0, -5.3263220233309675E-11, 9.220465710054308E-11, -9.999999747373083E-05, 0, -3.874043891807609E-17, -9.999999747374502E-05, -9.220465711164531E-11, 0, -0.5463426113128662, 37.77239227294922, -0.0007595450151711702, 1], "mesh" : 10, "name" : "Drop010"}, {"matrix" : [-9.999999747377344E-05, 2.3282093812783536E-18, 5.326322023332566E-11, 0, -5.326322023332566E-11, -8.742277769565975E-12, -9.999999747377299E-05, 0, 2.3282093812783536E-18, -9.999999747378718E-05, 8.742277680748135E-12, 0, -0.3308122158050537, 37.42095184326172, -0.0007595604402013123, 1], "mesh" : 11, "name" : "Drop011"}], "samplers" : [{"magFilter" : 9729, "minFilter" : 9729, "wrapS" : 10497, "wrapT" : 10497}, {"magFilter" : 9729, "minFilter" : 9729, "wrapS" : 10497, "wrapT" : 10497}, {"magFilter" : 9729, "minFilter" : 9729, "wrapS" : 10497, "wrapT" : 10497}, {"magFilter" : 9729, "minFilter" : 9729, "wrapS" : 10497, "wrapT" : 10497}, {"magFilter" : 9729, "minFilter" : 9729, "wrapS" : 10497, "wrapT" : 10497}, {"magFilter" : 9729, "minFilter" : 9729, "wrapS" : 10497, "wrapT" : 10497}, {"magFilter" : 9729, "minFilter" : 9729, "wrapS" : 10497, "wrapT" : 10497}, {"magFilter" : 9729, "minFilter" : 9729, "wrapS" : 10497, "wrapT" : 10497}, {"magFilter" : 9729, "minFilter" : 9729, "wrapS" : 10497, "wrapT" : 10497}, {"magFilter" : 9729, "minFilter" : 9729, "wrapS" : 10497, "wrapT" : 10497}, {"magFilter" : 9729, "minFilter" : 9729, "wrapS" : 10497, "wrapT" : 10497}, {"magFilter" : 9729, "minFilter" : 9729, "wrapS" : 10497, "wrapT" : 10497}], "scene" : 0, "scenes" : [{"nodes" : [0, 1, 2, 3, 4, 5, 6, 7, 8, 9, 10, 11]}], "textures" : [{"sampler" : 0, "source" : 0}, {"sampler" : 1, "source" : 1}, {"sampler" : 2, "source" : 2}, {"sampler" : 3, "source" : 3}, {"sampler" : 4, "source" : 4}, {"sampler" : 5, "source" : 5}, {"sampler" : 6, "source" : 6}, {"sampler" : 7, "source" : 7}, {"sampler" : 8, "source" : 8}, {"sampler" : 9, "source" : 9}, {"sampler" : 10, "source" : 10}, {"sampler" : 11, "source" : 11}]}