{"accessors" : [{"bufferView" : 0, "byteOffset" : 0, "componentType" : 5123, "count" : 2400, "type" : "SCALAR", "max" : [2399], "min" : [0]}, {"bufferView" : 1, "byteOffset" : 0, "componentType" : 5126, "count" : 2400, "type" : "VEC3", "max" : [0.41999998688697815, 0.41999998688697815, 8.100000381469727], "min" : [-0.41999998688697815, -0.41999998688697815, 0]}, {"bufferView" : 1, "byteOffset" : 12, "componentType" : 5126, "count" : 2400, "type" : "VEC3", "max" : [0.9992393255233765, 0.9992393255233765, 1.0000044107437134], "min" : [-0.9992393255233765, -0.9992393255233765, -1.0000044107437134]}, {"bufferView" : 1, "byteOffset" : 24, "componentType" : 5126, "count" : 2400, "type" : "VEC2", "max" : [1, -0], "min" : [0, -1]}, {"bufferView" : 0, "byteOffset" : 4800, "componentType" : 5123, "count" : 12828, "type" : "SCALAR", "max" : [12827], "min" : [0]}, {"bufferView" : 2, "byteOffset" : 0, "componentType" : 5126, "count" : 12828, "type" : "VEC3", "max" : [2.5005297660827637, 0.37515735626220703, 5.953048229217529], "min" : [-2.4972569942474365, -0.37515735626220703, -5.960744380950928]}, {"bufferView" : 2, "byteOffset" : 12, "componentType" : 5126, "count" : 12828, "type" : "VEC3", "max" : [0.980801522731781, 0.9987553358078003, 0.9810572862625122], "min" : [-0.9878016710281372, -0.9994818568229675, -0.980907678604126]}, {"bufferView" : 2, "byteOffset" : 24, "componentType" : 5126, "count" : 12828, "type" : "VEC2", "max" : [1.2365411520004272, 0.37515705823898315], "min" : [-3.7612452507019043, -0.3751571476459503]}, {"bufferView" : 0, "byteOffset" : 30456, "componentType" : 5123, "count" : 5280, "type" : "SCALAR", "max" : [5279], "min" : [0]}, {"bufferView" : 3, "byteOffset" : 0, "componentType" : 5126, "count" : 5280, "type" : "VEC3", "max" : [2.4353129863739014, 2.4353129863739014, 0.36000001430511475], "min" : [-2.4353129863739014, -2.4353129863739014, -0.36000001430511475]}, {"bufferView" : 3, "byteOffset" : 12, "componentType" : 5126, "count" : 5280, "type" : "VEC3", "max" : [1.0000044107437134, 1.0000044107437134, 0.9999805688858032], "min" : [-1.0000044107437134, -1.0000044107437134, -0.9999805688858032]}, {"bufferView" : 0, "byteOffset" : 41016, "componentType" : 5123, "count" : 216, "type" : "SCALAR", "max" : [215], "min" : [0]}, {"bufferView" : 4, "byteOffset" : 0, "componentType" : 5126, "count" : 216, "type" : "VEC3", "max" : [1.0887527465820312, 1.4926711320877075, 0.08024831861257553], "min" : [-1.3409099578857422, -1.2183284759521484, -0.06113162636756897]}, {"bufferView" : 4, "byteOffset" : 12, "componentType" : 5126, "count" : 216, "type" : "VEC3", "max" : [0.9976742267608643, 0.9077446460723877, 1.0000044107437134], "min" : [-0.9924507737159729, -0.9986839890480042, -1.0000044107437134]}, {"bufferView" : 0, "byteOffset" : 41448, "componentType" : 5123, "count" : 12288, "type" : "SCALAR", "max" : [12287], "min" : [0]}, {"bufferView" : 5, "byteOffset" : 0, "componentType" : 5126, "count" : 12288, "type" : "VEC3", "max" : [2.2804367542266846, 2.2804367542266846, 2.8442585468292236], "min" : [-2.2804362773895264, -2.2804365158081055, -2.3446946144104004]}, {"bufferView" : 5, "byteOffset" : 12, "componentType" : 5126, "count" : 12288, "type" : "VEC3", "max" : [0.9999666810035706, 0.9999667406082153, 1.0000044107437134], "min" : [-0.9999667406082153, -0.9999667406082153, -1.0000044107437134]}, {"bufferView" : 5, "byteOffset" : 24, "componentType" : 5126, "count" : 12288, "type" : "VEC2", "max" : [0, -0], "min" : [0, -0]}, {"bufferView" : 0, "byteOffset" : 66024, "componentType" : 5123, "count" : 1500, "type" : "SCALAR", "max" : [1499], "min" : [0]}, {"bufferView" : 6, "byteOffset" : 0, "componentType" : 5126, "count" : 1500, "type" : "VEC3", "max" : [5.017974376678467, 5.008072376251221, 1.7999999523162842], "min" : [-4.9784064292907715, -5.0080718994140625, 0]}, {"bufferView" : 6, "byteOffset" : 12, "componentType" : 5126, "count" : 1500, "type" : "VEC3", "max" : [1.0000044107437134, 0.9980310797691345, 1.0000044107437134], "min" : [-0.9921191334724426, -0.998030960559845, -1.0000044107437134]}, {"bufferView" : 6, "byteOffset" : 24, "componentType" : 5126, "count" : 1500, "type" : "VEC2", "max" : [1.029842495918274, -0], "min" : [-0.009842222556471825, -1]}, {"bufferView" : 0, "byteOffset" : 69024, "componentType" : 5123, "count" : 12360, "type" : "SCALAR", "max" : [12359], "min" : [0]}, {"bufferView" : 7, "byteOffset" : 0, "componentType" : 5126, "count" : 12360, "type" : "VEC3", "max" : [4.690390110015869, 0.12455785274505615, 4.864236354827881], "min" : [-4.769903659820557, -0.12455564737319946, -0.028330322355031967]}, {"bufferView" : 7, "byteOffset" : 12, "componentType" : 5126, "count" : 12360, "type" : "VEC3", "max" : [0.9998277425765991, 1.0000044107437134, 0.9998277425765991], "min" : [-0.9998277425765991, -1.0000044107437134, -0.9998276233673096]}, {"bufferView" : 7, "byteOffset" : 24, "componentType" : 5126, "count" : 12360, "type" : "VEC2", "max" : [1.056143045425415, 0.010471725836396217], "min" : [0.0003769751638174057, -0.9849231243133545]}, {"bufferView" : 0, "byteOffset" : 93744, "componentType" : 5123, "count" : 2304, "type" : "SCALAR", "max" : [2303], "min" : [0]}, {"bufferView" : 8, "byteOffset" : 0, "componentType" : 5126, "count" : 2304, "type" : "VEC3", "max" : [0.775556743144989, 0.7755575776100159, 0.6609286069869995], "min" : [-0.7755582332611084, -0.7755575776100159, -0.6608052253723145]}, {"bufferView" : 8, "byteOffset" : 12, "componentType" : 5126, "count" : 2304, "type" : "VEC3", "max" : [0.9999535083770752, 0.9999535083770752, 0.9999535083770752], "min" : [-0.9999535083770752, -0.9999535083770752, -0.9999535083770752]}, {"bufferView" : 8, "byteOffset" : 24, "componentType" : 5126, "count" : 2304, "type" : "VEC2", "max" : [0, -0], "min" : [0, -0]}, {"bufferView" : 0, "byteOffset" : 98352, "componentType" : 5123, "count" : 6240, "type" : "SCALAR", "max" : [6239], "min" : [0]}, {"bufferView" : 9, "byteOffset" : 0, "componentType" : 5126, "count" : 6240, "type" : "VEC3", "max" : [2.3631107807159424, 2.363110065460205, 2.5944766998291016], "min" : [-2.363110065460205, -2.3631107807159424, -4.954373836517334]}, {"bufferView" : 9, "byteOffset" : 12, "componentType" : 5126, "count" : 6240, "type" : "VEC3", "max" : [0.9998664855957031, 0.9998664259910583, 1.0000044107437134], "min" : [-0.9998664855957031, -0.9998664855957031, -0.5147042274475098]}, {"bufferView" : 9, "byteOffset" : 24, "componentType" : 5126, "count" : 6240, "type" : "VEC2", "max" : [0, -0], "min" : [0, -0]}], "asset" : {"generator" : "Aspose.3D 20.11", "version" : "2.0"}, "buffers" : [{"uri" : "buffer.bin", "byteLength" : 1840216}], "bufferViews" : [{"buffer" : 0, "byteOffset" : 0, "byteLength" : 110832, "target" : 34963}, {"buffer" : 0, "byteOffset" : 110836, "byteLength" : 76800, "byteStride" : 32, "target" : 34962}, {"buffer" : 0, "byteOffset" : 187640, "byteLength" : 410496, "byteStride" : 32, "target" : 34962}, {"buffer" : 0, "byteOffset" : 598140, "byteLength" : 126720, "byteStride" : 24, "target" : 34962}, {"buffer" : 0, "byteOffset" : 724864, "byteLength" : 5184, "byteStride" : 24, "target" : 34962}, {"buffer" : 0, "byteOffset" : 730052, "byteLength" : 393216, "byteStride" : 32, "target" : 34962}, {"buffer" : 0, "byteOffset" : 1123272, "byteLength" : 48000, "byteStride" : 32, "target" : 34962}, {"buffer" : 0, "byteOffset" : 1171276, "byteLength" : 395520, "byteStride" : 32, "target" : 34962}, {"buffer" : 0, "byteOffset" : 1566800, "byteLength" : 73728, "byteStride" : 32, "target" : 34962}, {"buffer" : 0, "byteOffset" : 1640532, "byteLength" : 199680, "byteStride" : 32, "target" : 34962}], "images" : [{"uri" : "D:\\Haresh\\Vala\\Jatinbhai\\Glo Bulb\\Maps\\White.jpg"}, {"uri" : "D:\\Haresh\\Vala\\Jatinbhai\\Glo Bulb\\Maps\\White.jpg"}, {"uri" : "D:\\Haresh\\Vala\\Jatinbhai\\Glo Bulb\\Maps\\White.jpg"}, {"uri" : "D:\\Haresh\\Vala\\Jatinbhai\\Glo Bulb\\Maps\\Yellow.jpg"}, {"uri" : "D:\\Haresh\\Vala\\Jatinbhai\\Glo Bulb\\Maps\\Yellow.jpg"}, {"uri" : "D:\\Haresh\\Vala\\Jatinbhai\\Glo Bulb\\Maps\\Black.jpg"}, {"uri" : "D:\\Haresh\\Vala\\Jatinbhai\\Glo Bulb\\Maps\\Black.jpg"}, {"uri" : "D:\\Haresh\\Vala\\Jatinbhai\\Glo Bulb\\Maps\\Yellow.jpg"}], "materials" : [{"pbrMetallicRoughness" : {"baseColorFactor" : [0.5882353186607361, 0.5882353186607361, 0.5882353186607361, 1], "baseColorTexture" : {"index" : 0, "texCoord" : 0}, "metallicFactor" : 0, "roughnessFactor" : 0}, "emissiveFactor" : [0, 0, 0], "alphaMode" : "OPAQUE", "doubleSided" : false}, {"pbrMetallicRoughness" : {"baseColorFactor" : [0.5882353186607361, 0.5882353186607361, 0.5882353186607361, 1], "baseColorTexture" : {"index" : 1, "texCoord" : 0}, "metallicFactor" : 0, "roughnessFactor" : 0}, "emissiveFactor" : [0, 0, 0], "alphaMode" : "OPAQUE", "doubleSided" : false}, {"pbrMetallicRoughness" : {"baseColorFactor" : [0.5882353186607361, 0.5882353186607361, 0.5882353186607361, 1], "baseColorTexture" : {"index" : 2, "texCoord" : 0}, "metallicFactor" : 0, "roughnessFactor" : 0}, "emissiveFactor" : [0, 0, 0], "alphaMode" : "OPAQUE", "doubleSided" : false}, {"pbrMetallicRoughness" : {"baseColorFactor" : [0.5882353186607361, 0.5882353186607361, 0.5882353186607361, 1], "baseColorTexture" : {"index" : 3, "texCoord" : 0}, "metallicFactor" : 0, "roughnessFactor" : 0}, "emissiveFactor" : [0, 0, 0], "alphaMode" : "OPAQUE", "doubleSided" : false}, {"pbrMetallicRoughness" : {"baseColorFactor" : [0.5882353186607361, 0.5882353186607361, 0.5882353186607361, 1], "metallicFactor" : 0, "roughnessFactor" : 0}, "emissiveFactor" : [0, 0, 0], "alphaMode" : "OPAQUE", "doubleSided" : false}, {"pbrMetallicRoughness" : {"baseColorFactor" : [0.5882353186607361, 0.5882353186607361, 0.5882353186607361, 1], "baseColorTexture" : {"index" : 4, "texCoord" : 0}, "metallicFactor" : 0, "roughnessFactor" : 0}, "emissiveFactor" : [0, 0, 0], "alphaMode" : "OPAQUE", "doubleSided" : false}, {"pbrMetallicRoughness" : {"baseColorFactor" : [0.5882353186607361, 0.5882353186607361, 0.5882353186607361, 1], "baseColorTexture" : {"index" : 5, "texCoord" : 0}, "metallicFactor" : 0, "roughnessFactor" : 0}, "emissiveFactor" : [0, 0, 0], "alphaMode" : "OPAQUE", "doubleSided" : false}, {"pbrMetallicRoughness" : {"baseColorFactor" : [0.5882353186607361, 0.5882353186607361, 0.5882353186607361, 1], "baseColorTexture" : {"index" : 6, "texCoord" : 0}, "metallicFactor" : 0, "roughnessFactor" : 0}, "emissiveFactor" : [0, 0, 0], "alphaMode" : "OPAQUE", "doubleSided" : false}, {"pbrMetallicRoughness" : {"baseColorFactor" : [0.5882353186607361, 0.5882353186607361, 0.5882353186607361, 1], "baseColorTexture" : {"index" : 7, "texCoord" : 0}, "metallicFactor" : 0, "roughnessFactor" : 0}, "emissiveFactor" : [0, 0, 0], "alphaMode" : "OPAQUE", "doubleSided" : false}], "meshes" : [{"primitives" : [{"attributes" : {"POSITION" : 1, "NORMAL" : 2, "TEXCOORD_0" : 3}, "indices" : 0, "material" : 0, "mode" : 4}]}, {"primitives" : [{"attributes" : {"POSITION" : 5, "NORMAL" : 6, "TEXCOORD_0" : 7}, "indices" : 4, "material" : 1, "mode" : 4}]}, {"primitives" : [{"attributes" : {"POSITION" : 9, "NORMAL" : 10}, "indices" : 8, "material" : 2, "mode" : 4}]}, {"primitives" : [{"attributes" : {"POSITION" : 12, "NORMAL" : 13}, "indices" : 11, "material" : 3, "mode" : 4}]}, {"primitives" : [{"attributes" : {"POSITION" : 15, "NORMAL" : 16, "TEXCOORD_0" : 17}, "indices" : 14, "material" : 4, "mode" : 4}]}, {"primitives" : [{"attributes" : {"POSITION" : 19, "NORMAL" : 20, "TEXCOORD_0" : 21}, "indices" : 18, "material" : 5, "mode" : 4}]}, {"primitives" : [{"attributes" : {"POSITION" : 23, "NORMAL" : 24, "TEXCOORD_0" : 25}, "indices" : 22, "material" : 6, "mode" : 4}]}, {"primitives" : [{"attributes" : {"POSITION" : 27, "NORMAL" : 28, "TEXCOORD_0" : 29}, "indices" : 26, "material" : 7, "mode" : 4}]}, {"primitives" : [{"attributes" : {"POSITION" : 31, "NORMAL" : 32, "TEXCOORD_0" : 33}, "indices" : 30, "material" : 8, "mode" : 4}]}], "nodes" : [{"matrix" : [1, 0, 0, 0, 0, -8.78176422247634E-07, 0.9999999999996144, 0, 0, -0.9999999999996144, -8.78176422247634E-07, 0, 0.16432282328605652, 5.976976394651759, -0.0025482177600018013, 1], "mesh" : 0, "name" : "Capsule001"}, {"matrix" : [1, 0, 0, 0, 0, -1.6292068494294654E-07, -0.9999999999999868, 0, 0, 0.9999999999999868, -1.6292068494294654E-07, 0, -3.5589895248413086, -3.4582481384277344, -0.002548217436099359, 1], "mesh" : 1, "name" : "Box002"}, {"matrix" : [1, 0, 0, 0, 0, 1, 0, 0, 0, 0, 1, 0, 3.857171058654785, 0.3841514587402344, -0.002546310191974044, 1], "mesh" : 2, "name" : "Circle001"}, {"matrix" : [1.096750020980835, 0, 0, 0, 0, 1.096750020980835, 0, 0, 0, 0, 1.096750020980835, 0, -2.928122524410206, -7.439558039726862, -0.0014152530844606659, 1], "mesh" : 3, "name" : "Line003"}, {"matrix" : [1, 0, 0, 0, 0, -1.6292068494294654E-07, -0.9999999999999868, 0, 0, 0.9999999999999868, -1.6292068494294654E-07, 0, 0.16420887410640717, 12.257368087768555, -0.000762939453125, 1], "mesh" : 4, "name" : "Object004"}, {"matrix" : [1, 0, 0, 0, 0, 1, 0, 0, 0, 0, 0.8868298530578613, 0, 0.16413067281246185, 12.770002218483697, -4.181153896168951, 1], "mesh" : 5, "name" : "Cylinder001"}, {"matrix" : [1, 0, 0, 0, 0, -7.589671326968528E-07, 0.999999999999712, 0, 0, -0.999999999999712, -7.589671326968528E-07, 0, 0.20396564900875092, 17.47181510925258, -0.0007568824349734992, 1], "mesh" : 6, "name" : "Cylinder002"}, {"matrix" : [1, 0, 0, 0, 0, -1.6292068494294654E-07, -0.9999999999999868, 0, 0, 0.9999999999999868, -1.6292068494294654E-07, 0, 0.16420887410640717, 9.027719497680664, -0.027019498869776726, 1], "mesh" : 7, "name" : "Object003"}, {"matrix" : [0.5158694386482239, 0, 0, 0, 0, -8.404580148387979E-08, -0.5158694386482171, 0, 0, 0.5158694386482171, -8.404580148387979E-08, 0, 0.16420887410640717, 12.507150650024403, -0.0007630009495542822, 1], "mesh" : 8, "name" : "Object002"}, {"children" : [0, 1, 2, 3, 4, 5, 6, 7, 8], "matrix" : [1, 0, 0, 0, 0, 0.9999999999999867, 1.6292068483192368E-07, 0, 0, -1.6292068483192368E-07, 0.9999999999999867, 0, -0.16420885920524597, 26.279050827026367, 1.1486937410154496E-06, 1], "name" : "Dummy002"}], "samplers" : [{"magFilter" : 9729, "minFilter" : 9729, "wrapS" : 10497, "wrapT" : 10497}, {"magFilter" : 9729, "minFilter" : 9729, "wrapS" : 10497, "wrapT" : 10497}, {"magFilter" : 9729, "minFilter" : 9729, "wrapS" : 10497, "wrapT" : 10497}, {"magFilter" : 9729, "minFilter" : 9729, "wrapS" : 10497, "wrapT" : 10497}, {"magFilter" : 9729, "minFilter" : 9729, "wrapS" : 10497, "wrapT" : 10497}, {"magFilter" : 9729, "minFilter" : 9729, "wrapS" : 10497, "wrapT" : 10497}, {"magFilter" : 9729, "minFilter" : 9729, "wrapS" : 10497, "wrapT" : 10497}, {"magFilter" : 9729, "minFilter" : 9729, "wrapS" : 10497, "wrapT" : 10497}], "scene" : 0, "scenes" : [{"nodes" : [9]}], "textures" : [{"sampler" : 0, "source" : 0}, {"sampler" : 1, "source" : 1}, {"sampler" : 2, "source" : 2}, {"sampler" : 3, "source" : 3}, {"sampler" : 4, "source" : 4}, {"sampler" : 5, "source" : 5}, {"sampler" : 6, "source" : 6}, {"sampler" : 7, "source" : 7}]}