{"accessors" : [{"bufferView" : 0, "byteOffset" : 0, "componentType" : 5123, "count" : 3132, "type" : "SCALAR", "max" : [3131], "min" : [0]}, {"bufferView" : 1, "byteOffset" : 0, "componentType" : 5126, "count" : 3132, "type" : "VEC3", "max" : [9.115342140197754, 3.552000045776367, 0.49781739711761475], "min" : [-9.115342140197754, -1.1920928955078125E-07, -4.0719475746154785]}, {"bufferView" : 1, "byteOffset" : 12, "componentType" : 5126, "count" : 3132, "type" : "VEC3", "max" : [0.99982088804245, 1.0000044107437134, 0.999233603477478], "min" : [-0.99851393699646, -1.0000044107437134, -0.999233603477478]}], "asset" : {"generator" : "Aspose.3D 20.11", "version" : "2.0"}, "buffers" : [{"uri" : "buffer.bin", "byteLength" : 94536}], "bufferViews" : [{"buffer" : 0, "byteOffset" : 0, "byteLength" : 6264, "target" : 34963}, {"buffer" : 0, "byteOffset" : 6268, "byteLength" : 75168, "byteStride" : 24, "target" : 34962}, {"buffer" : 0, "byteOffset" : 81440, "byteLength" : 13092}], "images" : [{"mimeType" : "application/octet-stream", "bufferView" : 2}], "materials" : [{"pbrMetallicRoughness" : {"baseColorFactor" : [0.5882353186607361, 0.5882353186607361, 0.5882353186607361, 1], "baseColorTexture" : {"index" : 0, "texCoord" : 0}, "metallicFactor" : 0, "roughnessFactor" : 0}, "emissiveFactor" : [0, 0, 0], "alphaMode" : "OPAQUE", "doubleSided" : false}], "meshes" : [{"primitives" : [{"attributes" : {"POSITION" : 1, "NORMAL" : 2}, "indices" : 0, "material" : 0, "mode" : 4}]}], "nodes" : [{"matrix" : [1, 0, 0, 0, 0, -1.6292068494294654E-07, 0.9999999999999868, 0, 0, -0.9999999999999868, -1.6292068494294654E-07, 0, 0, -10.151340191455036, -1.4624252168668597, 1], "mesh" : 0, "name" : "Verified"}, {"children" : [0], "matrix" : [1, 0, 0, 0, 0, -2.220446049250313E-16, -1.0000000000000002, 0, 0, 1.0000000000000002, -2.220446049250313E-16, 0, 0, 18.581893920898438, -5.816500703303973E-08, 1], "name" : "Dummy_Verified"}], "samplers" : [{"magFilter" : 9729, "minFilter" : 9729, "wrapS" : 10497, "wrapT" : 10497}], "scene" : 0, "scenes" : [{"nodes" : [1]}], "textures" : [{"sampler" : 0, "source" : 0}]}